<?xml version="1.0" encoding="utf-8"?>
<!-- Generator: Adobe Illustrator 19.2.0, SVG Export Plug-In . SVG Version: 6.00 Build 0)  -->
<svg version="1.1" id="Outline_Icons" xmlns="http://www.w3.org/2000/svg" xmlns:xlink="http://www.w3.org/1999/xlink" x="0px"
	 y="0px" viewBox="0 0 16 16" enable-background="new 0 0 16 16" xml:space="preserve">
<rect fill="none" width="16" height="16"/>
<g>
	<g>
		<path d="M13.5,2.5h-1V1.75C12.5,1.336,12.164,1,11.75,1h-1.5C9.836,1,9.5,1.336,9.5,1.75V2.5h-3V1.75C6.5,1.336,6.164,1,5.75,1
			h-1.5C3.836,1,3.5,1.336,3.5,1.75V2.5h-1c-0.965,0-1.75,0.788-1.75,1.758v8.984C0.75,14.212,1.535,15,2.5,15h11
			c0.965,0,1.75-0.788,1.75-1.758V4.258C15.25,3.288,14.465,2.5,13.5,2.5z M4.5,11.75c-0.552,0-1-0.448-1-1c0-0.552,0.448-1,1-1
			s1,0.448,1,1C5.5,11.302,5.052,11.75,4.5,11.75z M4.5,8c-0.552,0-1-0.448-1-1c0-0.552,0.448-1,1-1s1,0.448,1,1
			C5.5,7.552,5.052,8,4.5,8z M8,11.75c-0.552,0-1-0.448-1-1c0-0.552,0.448-1,1-1s1,0.448,1,1C9,11.302,8.552,11.75,8,11.75z M8,8
			C7.448,8,7,7.552,7,7c0-0.552,0.448-1,1-1s1,0.448,1,1C9,7.552,8.552,8,8,8z M11.5,11.75c-0.552,0-1-0.448-1-1
			c0-0.552,0.448-1,1-1s1,0.448,1,1C12.5,11.302,12.052,11.75,11.5,11.75z M11.5,8c-0.552,0-1-0.448-1-1c0-0.552,0.448-1,1-1
			s1,0.448,1,1C12.5,7.552,12.052,8,11.5,8z"/>
	</g>
</g>
</svg>
