<?xml version="1.0" encoding="utf-8"?>
<!-- Generator: Adobe Illustrator 19.2.0, SVG Export Plug-In . SVG Version: 6.00 Build 0)  -->
<svg version="1.1" id="Layer_1" xmlns="http://www.w3.org/2000/svg" xmlns:xlink="http://www.w3.org/1999/xlink" x="0px" y="0px"
	 viewBox="0 0 16 16" enable-background="new 0 0 16 16" xml:space="preserve">
<g>
	<path d="M15.239,6.535c-0.005-0.076-0.026-0.149-0.054-0.223c-0.013-0.033-0.018-0.066-0.035-0.096
		c-0.005-0.009-0.005-0.019-0.01-0.028c-0.055-0.09-0.126-0.163-0.207-0.22c-0.001,0-0.001-0.001-0.001-0.001L8.43,1.423
		c-0.258-0.181-0.602-0.181-0.859,0l-6.5,4.543c0,0-0.001,0.001-0.002,0.002c-0.081,0.057-0.152,0.13-0.207,0.22
		c-0.005,0.009-0.005,0.019-0.01,0.028c-0.017,0.03-0.022,0.062-0.035,0.094c-0.029,0.074-0.05,0.148-0.055,0.225
		C0.76,6.552,0.75,6.565,0.75,6.582v6.935c0,0.935,0.761,1.695,1.696,1.695h11.109c0.935,0,1.695-0.761,1.695-1.695V6.582
		C15.25,6.565,15.24,6.551,15.239,6.535z M13.555,13.712H2.446c-0.108,0-0.196-0.088-0.196-0.195V7.924l2.14,1.318
		c0.123,0.076,0.258,0.111,0.393,0.111c0.251,0,0.498-0.126,0.639-0.357c0.217-0.353,0.107-0.814-0.246-1.032l-2.31-1.423L8,2.953
		l5.134,3.589l-2.31,1.423c-0.353,0.217-0.463,0.679-0.246,1.032c0.142,0.23,0.388,0.357,0.639,0.357
		c0.134,0,0.27-0.036,0.393-0.111l2.14-1.317v5.592C13.75,13.624,13.662,13.712,13.555,13.712z"/>
	<path d="M9.911,9.452C9.78,9.353,9.621,9.299,9.457,9.299H6.543c-0.164,0-0.323,0.054-0.454,0.153l-2.307,1.754
		c-0.33,0.251-0.394,0.721-0.143,1.051c0.251,0.329,0.721,0.393,1.051,0.143l2.105-1.601h2.407l2.105,1.601
		c0.136,0.103,0.295,0.153,0.454,0.153c0.226,0,0.45-0.102,0.598-0.296c0.25-0.33,0.187-0.8-0.143-1.051L9.911,9.452z"/>
</g>
<rect x="0" fill="none" width="16" height="16"/>
</svg>
