<?xml version="1.0" encoding="utf-8"?>
<!-- Generator: Adobe Illustrator 19.2.0, SVG Export Plug-In . SVG Version: 6.00 Build 0)  -->
<svg version="1.1" id="Layer_1" xmlns="http://www.w3.org/2000/svg" xmlns:xlink="http://www.w3.org/1999/xlink" x="0px" y="0px"
	 viewBox="136 376 32 32" enable-background="new 136 376 32 32" xml:space="preserve">
<g>
	<g>
		<path id="facebook-circle-icon" fill="#3B5998" d="M152,376c-8.837,0-16,7.163-16,16s7.163,16,16,16s16-7.163,16-16
			S160.837,376,152,376z"/>
		<path fill="#FFFFFF" d="M156.735,385.413c0,0-1.6,0-2.236,0c-0.789,0-0.954,0.323-0.954,1.14c0,0.68,0,1.973,0,1.973h3.19
			l-0.307,3.464h-2.883v10.348h-4.132v-10.304h-2.149v-3.508h2.149c0,0,0-0.504,0-2.762c0-2.593,1.386-3.946,4.461-3.946
			c0.504,0,2.861,0,2.861,0L156.735,385.413L156.735,385.413z"/>
	</g>
	<rect x="136" y="376" fill="none" width="32" height="32"/>
</g>
</svg>
