<?xml version="1.0" encoding="utf-8"?>
<!-- Generator: Adobe Illustrator 19.2.0, SVG Export Plug-In . SVG Version: 6.00 Build 0)  -->
<svg version="1.1" id="Outline_Icons" xmlns="http://www.w3.org/2000/svg" xmlns:xlink="http://www.w3.org/1999/xlink" x="0px"
	 y="0px" viewBox="0 0 12 12" enable-background="new 0 0 12 12" xml:space="preserve">
<g>
	<path fill="none" d="M0,0h12v12H0V0z"/>
	<path d="M8.819,10.834c-0.134,0-0.268-0.036-0.388-0.107L6,9.259l-2.432,1.468c-0.26,0.153-0.584,0.142-0.829-0.036
		c-0.243-0.177-0.357-0.483-0.289-0.776l0.646-2.767L0.946,5.285C0.719,5.088,0.631,4.773,0.725,4.486
		C0.817,4.2,1.073,3.997,1.374,3.972l2.83-0.24L5.31,1.123c0.234-0.555,1.146-0.555,1.381,0l1.105,2.608l2.83,0.24
		c0.301,0.025,0.557,0.229,0.649,0.515c0.094,0.287,0.006,0.602-0.222,0.799L8.904,7.147L9.55,9.914
		c0.068,0.293-0.046,0.6-0.289,0.776C9.129,10.786,8.975,10.834,8.819,10.834z M6,7.633c0.134,0,0.269,0.036,0.388,0.107
		l1.298,0.783L7.341,7.047C7.277,6.776,7.37,6.492,7.58,6.311l1.147-0.995L7.219,5.188C6.941,5.164,6.7,4.989,6.592,4.733L6,3.338
		L5.408,4.733C5.3,4.989,5.059,5.164,4.781,5.188L3.272,5.315L4.42,6.311c0.21,0.182,0.303,0.466,0.239,0.736L4.314,8.523
		L5.612,7.74C5.731,7.669,5.866,7.633,6,7.633z"/>
</g>
</svg>
