<?xml version="1.0" encoding="utf-8"?>
<!-- Generator: Adobe Illustrator 19.2.0, SVG Export Plug-In . SVG Version: 6.00 Build 0)  -->
<svg version="1.1" id="Outline_Icons" xmlns="http://www.w3.org/2000/svg" xmlns:xlink="http://www.w3.org/1999/xlink" x="0px"
	 y="0px" viewBox="0 0 32 32" enable-background="new 0 0 32 32" xml:space="preserve">
<rect x="0" y="0" transform="matrix(4.490636e-11 -1 1 4.490636e-11 -7.185008e-10 32)" fill="none" width="32" height="32"/>
<path d="M30.96,14.5h-2.306C27.908,8.175,22.522,3.25,16,3.25C8.97,3.25,3.25,8.97,3.25,16S8.97,28.75,16,28.75
	c0.414,0,0.75-0.336,0.75-0.75s-0.336-0.75-0.75-0.75C9.797,27.25,4.75,22.203,4.75,16S9.797,4.75,16,4.75
	c5.693,0,10.401,4.255,11.138,9.75H25.04c-0.419,0-0.652,0.485-0.39,0.812l2.959,3.7c0.2,0.25,0.581,0.25,0.781,0l2.96-3.7
	C31.612,14.985,31.379,14.5,30.96,14.5z"/>
</svg>
