<?xml version="1.0" encoding="utf-8"?>
<!-- Generator: Adobe Illustrator 19.2.0, SVG Export Plug-In . SVG Version: 6.00 Build 0)  -->
<svg version="1.1" id="Outline_Icons" xmlns="http://www.w3.org/2000/svg" xmlns:xlink="http://www.w3.org/1999/xlink" x="0px"
	 y="0px" viewBox="0 0 24 24" enable-background="new 0 0 24 24" xml:space="preserve">
<rect fill="none" width="24" height="24"/>
<g>
	<g>
		<path d="M22,3.25H2C1.586,3.25,1.25,3.586,1.25,4v16c0,0.414,0.336,0.75,0.75,0.75h20c0.414,0,0.75-0.336,0.75-0.75V4
			C22.75,3.586,22.414,3.25,22,3.25z M15.835,12.671l-6,3C9.729,15.724,9.614,15.75,9.5,15.75c-0.137,0-0.273-0.037-0.395-0.112
			C8.885,15.501,8.75,15.26,8.75,15V9c0-0.26,0.135-0.501,0.355-0.638c0.223-0.138,0.498-0.148,0.729-0.033l6,3
			C16.09,11.456,16.25,11.716,16.25,12S16.09,12.544,15.835,12.671z"/>
	</g>
</g>
</svg>
