<?xml version="1.0" encoding="utf-8"?>
<!-- Generator: Adobe Illustrator 19.2.0, SVG Export Plug-In . SVG Version: 6.00 Build 0)  -->
<svg version="1.1" id="Outline_Icons" xmlns="http://www.w3.org/2000/svg" xmlns:xlink="http://www.w3.org/1999/xlink" x="0px"
	 y="0px" viewBox="0 0 24 24" enable-background="new 0 0 24 24" xml:space="preserve">
<g>
	<path d="M22,20.75H2c-0.414,0-0.75-0.336-0.75-0.75V4c0-0.414,0.336-0.75,0.75-0.75h20c0.414,0,0.75,0.336,0.75,0.75v16
		C22.75,20.414,22.414,20.75,22,20.75z M2.75,19.25h18.5V4.75H2.75V19.25z"/>
	<path d="M15.835,11.329l-6-3C9.604,8.214,9.328,8.225,9.105,8.362C8.885,8.499,8.75,8.74,8.75,9v6c0,0.26,0.135,0.501,0.355,0.638
		C9.227,15.713,9.363,15.75,9.5,15.75c0.114,0,0.229-0.026,0.335-0.079l6-3C16.09,12.544,16.25,12.284,16.25,12
		S16.09,11.456,15.835,11.329z"/>
	<rect fill="none" width="24" height="24"/>
</g>
</svg>
